<mxfile host="app.diagrams.net" agent="Mozilla/5.0 (Windows NT 10.0; Win64; x64) AppleWebKit/537.36 (KHTML, like Gecko) Chrome/141.0.0.0 Safari/537.36" version="28.2.7">
  <diagram name="Pagina-1" id="FWkgMRynmI9EFWddQdTc">
    <mxGraphModel dx="273" dy="2863" grid="1" gridSize="10" guides="1" tooltips="1" connect="1" arrows="1" fold="1" page="1" pageScale="1" pageWidth="1654" pageHeight="2336" math="0" shadow="0">
      <root>
        <mxCell id="0" />
        <mxCell id="1" parent="0" />
        <mxCell id="iSreJ-TO8Ud4rmnBnXO--47" value="11" style="text;html=1;whiteSpace=wrap;strokeColor=none;fillColor=none;align=center;verticalAlign=middle;rounded=0;" vertex="1" parent="1">
          <mxGeometry x="172.32999999999998" y="207.5" width="60" height="30" as="geometry" />
        </mxCell>
        <mxCell id="3Pal1T17atZr6vdGBHyb-1" value="REG0" style="rounded=0;whiteSpace=wrap;html=1;rotation=90;" parent="1" vertex="1">
          <mxGeometry x="181.54500000000007" y="60.00500000000001" width="120" height="90" as="geometry" />
        </mxCell>
        <mxCell id="3Pal1T17atZr6vdGBHyb-2" value="" style="triangle;whiteSpace=wrap;html=1;" parent="1" vertex="1">
          <mxGeometry x="196.54500000000007" y="130.005" width="30" height="20" as="geometry" />
        </mxCell>
        <mxCell id="3Pal1T17atZr6vdGBHyb-3" value="" style="endArrow=none;html=1;rounded=0;" parent="1" edge="1">
          <mxGeometry width="50" height="50" relative="1" as="geometry">
            <mxPoint x="126.54500000000007" y="80.00500000000001" as="sourcePoint" />
            <mxPoint x="196.54500000000007" y="80.00500000000001" as="targetPoint" />
          </mxGeometry>
        </mxCell>
        <mxCell id="3Pal1T17atZr6vdGBHyb-4" value="" style="endArrow=none;html=1;rounded=0;" parent="1" edge="1">
          <mxGeometry width="50" height="50" relative="1" as="geometry">
            <mxPoint x="286.5450000000001" y="80.00500000000001" as="sourcePoint" />
            <mxPoint x="370.545" y="80.00500000000001" as="targetPoint" />
          </mxGeometry>
        </mxCell>
        <mxCell id="3Pal1T17atZr6vdGBHyb-5" value="" style="endArrow=oval;html=1;rounded=0;startArrow=none;startFill=0;endFill=1;" parent="1" edge="1">
          <mxGeometry width="50" height="50" relative="1" as="geometry">
            <mxPoint x="156.54500000000007" y="200.005" as="sourcePoint" />
            <mxPoint x="156.54500000000007" y="80.00500000000001" as="targetPoint" />
          </mxGeometry>
        </mxCell>
        <mxCell id="3Pal1T17atZr6vdGBHyb-6" value="&lt;div style=&quot;line-height: 230%;&quot;&gt;&lt;font style=&quot;font-size: 29px; line-height: 140%;&quot;&gt;X&lt;/font&gt;&lt;/div&gt;" style="whiteSpace=wrap;html=1;aspect=fixed;" parent="1" vertex="1">
          <mxGeometry x="126.54500000000007" y="200.005" width="60" height="60" as="geometry" />
        </mxCell>
        <mxCell id="3Pal1T17atZr6vdGBHyb-8" value="" style="endArrow=none;html=1;rounded=0;" parent="1" edge="1">
          <mxGeometry width="50" height="50" relative="1" as="geometry">
            <mxPoint x="156" y="300" as="sourcePoint" />
            <mxPoint x="156" y="260.005" as="targetPoint" />
          </mxGeometry>
        </mxCell>
        <mxCell id="3Pal1T17atZr6vdGBHyb-9" value="" style="endArrow=oval;html=1;rounded=0;startArrow=none;startFill=0;endFill=1;" parent="1" edge="1">
          <mxGeometry width="50" height="50" relative="1" as="geometry">
            <mxPoint x="316.5450000000001" y="200.005" as="sourcePoint" />
            <mxPoint x="316.5450000000001" y="80.00500000000001" as="targetPoint" />
          </mxGeometry>
        </mxCell>
        <mxCell id="3Pal1T17atZr6vdGBHyb-10" value="&lt;div style=&quot;line-height: 230%;&quot;&gt;&lt;font style=&quot;font-size: 29px; line-height: 140%;&quot;&gt;X&lt;/font&gt;&lt;/div&gt;" style="whiteSpace=wrap;html=1;aspect=fixed;" parent="1" vertex="1">
          <mxGeometry x="286.5450000000001" y="200.005" width="60" height="60" as="geometry" />
        </mxCell>
        <mxCell id="3Pal1T17atZr6vdGBHyb-13" value="" style="endArrow=none;html=1;rounded=0;strokeWidth=1.5;" parent="1" edge="1">
          <mxGeometry width="50" height="50" relative="1" as="geometry">
            <mxPoint x="266.5450000000001" y="390.005" as="sourcePoint" />
            <mxPoint x="304.0450000000001" y="390.005" as="targetPoint" />
          </mxGeometry>
        </mxCell>
        <mxCell id="3Pal1T17atZr6vdGBHyb-14" value="" style="endArrow=none;html=1;rounded=0;strokeWidth=1.5;" parent="1" edge="1">
          <mxGeometry width="50" height="50" relative="1" as="geometry">
            <mxPoint x="329.0450000000001" y="390.005" as="sourcePoint" />
            <mxPoint x="366.545" y="390.005" as="targetPoint" />
          </mxGeometry>
        </mxCell>
        <mxCell id="3Pal1T17atZr6vdGBHyb-15" value="" style="endArrow=none;html=1;rounded=0;strokeWidth=1.5;" parent="1" edge="1">
          <mxGeometry width="50" height="50" relative="1" as="geometry">
            <mxPoint x="297.7950000000001" y="440.005" as="sourcePoint" />
            <mxPoint x="335.2950000000001" y="440.005" as="targetPoint" />
          </mxGeometry>
        </mxCell>
        <mxCell id="3Pal1T17atZr6vdGBHyb-16" value="" style="endArrow=none;html=1;rounded=0;strokeWidth=1.5;" parent="1" edge="1">
          <mxGeometry width="50" height="50" relative="1" as="geometry">
            <mxPoint x="335.2950000000001" y="440.005" as="sourcePoint" />
            <mxPoint x="366.545" y="390.005" as="targetPoint" />
          </mxGeometry>
        </mxCell>
        <mxCell id="3Pal1T17atZr6vdGBHyb-17" value="" style="endArrow=none;html=1;rounded=0;strokeWidth=1.5;" parent="1" edge="1">
          <mxGeometry width="50" height="50" relative="1" as="geometry">
            <mxPoint x="266.5450000000001" y="390.005" as="sourcePoint" />
            <mxPoint x="297.7950000000001" y="440.005" as="targetPoint" />
          </mxGeometry>
        </mxCell>
        <mxCell id="3Pal1T17atZr6vdGBHyb-18" value="" style="endArrow=none;html=1;rounded=0;strokeWidth=1.5;" parent="1" edge="1">
          <mxGeometry width="50" height="50" relative="1" as="geometry">
            <mxPoint x="304.0450000000001" y="390.005" as="sourcePoint" />
            <mxPoint x="316.5450000000001" y="408.755" as="targetPoint" />
          </mxGeometry>
        </mxCell>
        <mxCell id="3Pal1T17atZr6vdGBHyb-19" value="" style="endArrow=none;html=1;rounded=0;strokeWidth=1.5;" parent="1" edge="1">
          <mxGeometry width="50" height="50" relative="1" as="geometry">
            <mxPoint x="329.0450000000001" y="390.005" as="sourcePoint" />
            <mxPoint x="316.5450000000001" y="408.755" as="targetPoint" />
          </mxGeometry>
        </mxCell>
        <mxCell id="3Pal1T17atZr6vdGBHyb-20" value="" style="endArrow=none;html=1;rounded=0;entryX=0.5;entryY=1;entryDx=0;entryDy=0;" parent="1" edge="1">
          <mxGeometry width="50" height="50" relative="1" as="geometry">
            <mxPoint x="156.30500000000006" y="360.005" as="sourcePoint" />
            <mxPoint x="156.30500000000006" y="340.005" as="targetPoint" />
          </mxGeometry>
        </mxCell>
        <mxCell id="3Pal1T17atZr6vdGBHyb-21" value="" style="endArrow=none;html=1;rounded=0;" parent="1" edge="1">
          <mxGeometry width="50" height="50" relative="1" as="geometry">
            <mxPoint x="156.54500000000007" y="360.005" as="sourcePoint" />
            <mxPoint x="286.5450000000001" y="360.005" as="targetPoint" />
          </mxGeometry>
        </mxCell>
        <mxCell id="3Pal1T17atZr6vdGBHyb-22" value="" style="endArrow=none;html=1;rounded=0;" parent="1" edge="1">
          <mxGeometry width="50" height="50" relative="1" as="geometry">
            <mxPoint x="286.5450000000001" y="390.005" as="sourcePoint" />
            <mxPoint x="286.5450000000001" y="360.005" as="targetPoint" />
          </mxGeometry>
        </mxCell>
        <mxCell id="3Pal1T17atZr6vdGBHyb-23" value="" style="endArrow=none;html=1;rounded=0;" parent="1" edge="1">
          <mxGeometry width="50" height="50" relative="1" as="geometry">
            <mxPoint x="316.5450000000001" y="480.005" as="sourcePoint" />
            <mxPoint x="316.5450000000001" y="440.005" as="targetPoint" />
          </mxGeometry>
        </mxCell>
        <mxCell id="3Pal1T17atZr6vdGBHyb-24" value="" style="endArrow=none;html=1;rounded=0;" parent="1" edge="1">
          <mxGeometry width="50" height="50" relative="1" as="geometry">
            <mxPoint x="316.5450000000001" y="360.005" as="sourcePoint" />
            <mxPoint x="316.20500000000004" y="340.005" as="targetPoint" />
          </mxGeometry>
        </mxCell>
        <mxCell id="3Pal1T17atZr6vdGBHyb-25" value="" style="endArrow=none;html=1;rounded=0;" parent="1" edge="1">
          <mxGeometry width="50" height="50" relative="1" as="geometry">
            <mxPoint x="345.85499999999996" y="390.005" as="sourcePoint" />
            <mxPoint x="345.85499999999996" y="360.005" as="targetPoint" />
          </mxGeometry>
        </mxCell>
        <mxCell id="3Pal1T17atZr6vdGBHyb-26" value="" style="endArrow=none;html=1;rounded=0;" parent="1" edge="1">
          <mxGeometry width="50" height="50" relative="1" as="geometry">
            <mxPoint x="316.5450000000001" y="360.005" as="sourcePoint" />
            <mxPoint x="346.545" y="360.005" as="targetPoint" />
          </mxGeometry>
        </mxCell>
        <mxCell id="3Pal1T17atZr6vdGBHyb-28" value="" style="endArrow=none;html=1;rounded=0;" parent="1" edge="1">
          <mxGeometry width="50" height="50" relative="1" as="geometry">
            <mxPoint x="316" y="480" as="sourcePoint" />
            <mxPoint x="441" y="480" as="targetPoint" />
          </mxGeometry>
        </mxCell>
        <mxCell id="3Pal1T17atZr6vdGBHyb-29" value="" style="endArrow=none;html=1;rounded=0;startArrow=none;startFill=0;endFill=0;" parent="1" edge="1">
          <mxGeometry width="50" height="50" relative="1" as="geometry">
            <mxPoint x="241" y="45" as="sourcePoint" />
            <mxPoint x="241" y="20" as="targetPoint" />
          </mxGeometry>
        </mxCell>
        <mxCell id="3Pal1T17atZr6vdGBHyb-30" value="" style="endArrow=none;html=1;rounded=0;" parent="1" edge="1">
          <mxGeometry width="50" height="50" relative="1" as="geometry">
            <mxPoint x="90" y="300" as="sourcePoint" />
            <mxPoint x="201.55" y="300" as="targetPoint" />
          </mxGeometry>
        </mxCell>
        <mxCell id="3Pal1T17atZr6vdGBHyb-31" value="" style="endArrow=none;html=1;rounded=0;" parent="1" edge="1">
          <mxGeometry width="50" height="50" relative="1" as="geometry">
            <mxPoint x="111.55" y="340" as="sourcePoint" />
            <mxPoint x="201.55" y="340" as="targetPoint" />
          </mxGeometry>
        </mxCell>
        <mxCell id="3Pal1T17atZr6vdGBHyb-32" value="" style="endArrow=none;html=1;rounded=0;" parent="1" edge="1">
          <mxGeometry width="50" height="50" relative="1" as="geometry">
            <mxPoint x="201" y="340" as="sourcePoint" />
            <mxPoint x="201" y="320" as="targetPoint" />
          </mxGeometry>
        </mxCell>
        <mxCell id="3Pal1T17atZr6vdGBHyb-33" value="" style="endArrow=none;html=1;rounded=0;" parent="1" edge="1">
          <mxGeometry width="50" height="50" relative="1" as="geometry">
            <mxPoint x="111" y="340" as="sourcePoint" />
            <mxPoint x="111" y="300" as="targetPoint" />
          </mxGeometry>
        </mxCell>
        <mxCell id="3Pal1T17atZr6vdGBHyb-34" value="" style="endArrow=none;html=1;rounded=0;dashed=1;" parent="1" edge="1">
          <mxGeometry width="50" height="50" relative="1" as="geometry">
            <mxPoint x="203.10000000000002" y="300" as="sourcePoint" />
            <mxPoint x="226.55" y="300" as="targetPoint" />
          </mxGeometry>
        </mxCell>
        <mxCell id="3Pal1T17atZr6vdGBHyb-35" value="" style="endArrow=none;html=1;rounded=0;" parent="1" edge="1">
          <mxGeometry width="50" height="50" relative="1" as="geometry">
            <mxPoint x="151.55" y="280" as="sourcePoint" />
            <mxPoint x="160" y="270" as="targetPoint" />
          </mxGeometry>
        </mxCell>
        <mxCell id="3Pal1T17atZr6vdGBHyb-36" value="" style="endArrow=none;html=1;rounded=0;" parent="1" edge="1">
          <mxGeometry width="50" height="50" relative="1" as="geometry">
            <mxPoint x="107" y="330" as="sourcePoint" />
            <mxPoint x="115" y="320" as="targetPoint" />
          </mxGeometry>
        </mxCell>
        <mxCell id="3Pal1T17atZr6vdGBHyb-37" value="" style="endArrow=none;html=1;rounded=0;" parent="1" edge="1">
          <mxGeometry width="50" height="50" relative="1" as="geometry">
            <mxPoint x="178.55" y="345" as="sourcePoint" />
            <mxPoint x="186.55" y="335" as="targetPoint" />
          </mxGeometry>
        </mxCell>
        <mxCell id="3Pal1T17atZr6vdGBHyb-38" value="" style="endArrow=none;html=1;rounded=0;" parent="1" edge="1">
          <mxGeometry width="50" height="50" relative="1" as="geometry">
            <mxPoint x="250" y="365" as="sourcePoint" />
            <mxPoint x="258" y="355" as="targetPoint" />
          </mxGeometry>
        </mxCell>
        <mxCell id="3Pal1T17atZr6vdGBHyb-48" value="" style="endArrow=none;html=1;rounded=0;" parent="1" edge="1">
          <mxGeometry width="50" height="50" relative="1" as="geometry">
            <mxPoint x="342" y="380" as="sourcePoint" />
            <mxPoint x="350" y="370" as="targetPoint" />
          </mxGeometry>
        </mxCell>
        <mxCell id="3Pal1T17atZr6vdGBHyb-49" value="" style="endArrow=none;html=1;rounded=0;" parent="1" edge="1">
          <mxGeometry width="50" height="50" relative="1" as="geometry">
            <mxPoint x="312.55" y="470" as="sourcePoint" />
            <mxPoint x="320.55" y="460" as="targetPoint" />
          </mxGeometry>
        </mxCell>
        <mxCell id="3Pal1T17atZr6vdGBHyb-50" value="" style="endArrow=none;html=1;rounded=0;" parent="1" edge="1">
          <mxGeometry width="50" height="50" relative="1" as="geometry">
            <mxPoint x="152.55" y="130" as="sourcePoint" />
            <mxPoint x="160.55" y="120" as="targetPoint" />
          </mxGeometry>
        </mxCell>
        <mxCell id="3Pal1T17atZr6vdGBHyb-51" value="" style="endArrow=none;html=1;rounded=0;" parent="1" edge="1">
          <mxGeometry width="50" height="50" relative="1" as="geometry">
            <mxPoint x="312.55" y="130" as="sourcePoint" />
            <mxPoint x="320.55" y="120" as="targetPoint" />
          </mxGeometry>
        </mxCell>
        <mxCell id="3Pal1T17atZr6vdGBHyb-52" value="" style="endArrow=none;html=1;rounded=0;" parent="1" edge="1">
          <mxGeometry width="50" height="50" relative="1" as="geometry">
            <mxPoint x="237.55" y="40" as="sourcePoint" />
            <mxPoint x="245.55" y="30" as="targetPoint" />
          </mxGeometry>
        </mxCell>
        <mxCell id="3Pal1T17atZr6vdGBHyb-54" value="" style="endArrow=none;html=1;rounded=0;" parent="1" edge="1">
          <mxGeometry width="50" height="50" relative="1" as="geometry">
            <mxPoint x="90" y="230" as="sourcePoint" />
            <mxPoint x="126.55000000000001" y="230" as="targetPoint" />
          </mxGeometry>
        </mxCell>
        <mxCell id="3Pal1T17atZr6vdGBHyb-55" value="" style="endArrow=none;html=1;rounded=0;" parent="1" edge="1">
          <mxGeometry width="50" height="50" relative="1" as="geometry">
            <mxPoint x="103.55000000000001" y="235" as="sourcePoint" />
            <mxPoint x="111.55000000000001" y="225" as="targetPoint" />
          </mxGeometry>
        </mxCell>
        <mxCell id="3Pal1T17atZr6vdGBHyb-56" value="" style="endArrow=none;html=1;rounded=0;" parent="1" edge="1">
          <mxGeometry width="50" height="50" relative="1" as="geometry">
            <mxPoint x="260" y="230" as="sourcePoint" />
            <mxPoint x="286.55" y="230" as="targetPoint" />
          </mxGeometry>
        </mxCell>
        <mxCell id="3Pal1T17atZr6vdGBHyb-57" value="" style="endArrow=none;html=1;rounded=0;" parent="1" edge="1">
          <mxGeometry width="50" height="50" relative="1" as="geometry">
            <mxPoint x="270.45" y="235" as="sourcePoint" />
            <mxPoint x="278" y="225" as="targetPoint" />
          </mxGeometry>
        </mxCell>
        <mxCell id="iSreJ-TO8Ud4rmnBnXO--3" value="VIN" style="text;html=1;whiteSpace=wrap;strokeColor=none;fillColor=none;align=center;verticalAlign=middle;rounded=0;" vertex="1" parent="1">
          <mxGeometry x="211" y="-2" width="60" height="30" as="geometry" />
        </mxCell>
        <mxCell id="iSreJ-TO8Ud4rmnBnXO--4" value="11" style="text;html=1;whiteSpace=wrap;strokeColor=none;fillColor=none;align=center;verticalAlign=middle;rounded=0;" vertex="1" parent="1">
          <mxGeometry x="119" y="105" width="60" height="30" as="geometry" />
        </mxCell>
        <mxCell id="iSreJ-TO8Ud4rmnBnXO--5" value="11" style="text;html=1;whiteSpace=wrap;strokeColor=none;fillColor=none;align=center;verticalAlign=middle;rounded=0;" vertex="1" parent="1">
          <mxGeometry x="280" y="105" width="60" height="30" as="geometry" />
        </mxCell>
        <mxCell id="iSreJ-TO8Ud4rmnBnXO--6" value="11" style="text;html=1;whiteSpace=wrap;strokeColor=none;fillColor=none;align=center;verticalAlign=middle;rounded=0;" vertex="1" parent="1">
          <mxGeometry x="72" y="208" width="60" height="30" as="geometry" />
        </mxCell>
        <mxCell id="iSreJ-TO8Ud4rmnBnXO--8" value="" style="endArrow=none;html=1;rounded=0;dashed=1;" edge="1" parent="1">
          <mxGeometry width="50" height="50" relative="1" as="geometry">
            <mxPoint x="70" y="300" as="sourcePoint" />
            <mxPoint x="93.44999999999999" y="300" as="targetPoint" />
          </mxGeometry>
        </mxCell>
        <mxCell id="iSreJ-TO8Ud4rmnBnXO--9" value="" style="endArrow=none;html=1;rounded=0;" edge="1" parent="1">
          <mxGeometry width="50" height="50" relative="1" as="geometry">
            <mxPoint x="178" y="305" as="sourcePoint" />
            <mxPoint x="187" y="295" as="targetPoint" />
          </mxGeometry>
        </mxCell>
        <mxCell id="iSreJ-TO8Ud4rmnBnXO--10" value="(21)" style="text;html=1;whiteSpace=wrap;strokeColor=none;fillColor=none;align=center;verticalAlign=middle;rounded=0;fontSize=8;" vertex="1" parent="1">
          <mxGeometry x="66.55" y="280" width="60" height="30" as="geometry" />
        </mxCell>
        <mxCell id="iSreJ-TO8Ud4rmnBnXO--11" value="12" style="text;html=1;whiteSpace=wrap;strokeColor=none;fillColor=none;align=center;verticalAlign=middle;rounded=0;fontSize=8;" vertex="1" parent="1">
          <mxGeometry x="148" y="279" width="60" height="30" as="geometry" />
        </mxCell>
        <mxCell id="iSreJ-TO8Ud4rmnBnXO--12" value="0" style="text;html=1;whiteSpace=wrap;strokeColor=none;fillColor=none;align=center;verticalAlign=middle;rounded=0;fontSize=8;" vertex="1" parent="1">
          <mxGeometry x="155" y="291" width="60" height="30" as="geometry" />
        </mxCell>
        <mxCell id="iSreJ-TO8Ud4rmnBnXO--13" value="20" style="text;html=1;whiteSpace=wrap;strokeColor=none;fillColor=none;align=center;verticalAlign=middle;rounded=0;fontSize=8;" vertex="1" parent="1">
          <mxGeometry x="74" y="307" width="60" height="30" as="geometry" />
        </mxCell>
        <mxCell id="iSreJ-TO8Ud4rmnBnXO--14" value="13" style="text;html=1;whiteSpace=wrap;strokeColor=none;fillColor=none;align=center;verticalAlign=middle;rounded=0;fontSize=8;" vertex="1" parent="1">
          <mxGeometry x="87" y="314" width="60" height="30" as="geometry" />
        </mxCell>
        <mxCell id="iSreJ-TO8Ud4rmnBnXO--15" value="3" style="text;html=1;whiteSpace=wrap;strokeColor=none;fillColor=none;align=center;verticalAlign=middle;rounded=0;fontSize=8;" vertex="1" parent="1">
          <mxGeometry x="150" y="320" width="60" height="30" as="geometry" />
        </mxCell>
        <mxCell id="iSreJ-TO8Ud4rmnBnXO--16" value="&quot;000&quot;" style="text;html=1;whiteSpace=wrap;strokeColor=none;fillColor=none;align=center;verticalAlign=middle;rounded=0;fontSize=8;" vertex="1" parent="1">
          <mxGeometry x="170" y="300" width="60" height="30" as="geometry" />
        </mxCell>
        <mxCell id="iSreJ-TO8Ud4rmnBnXO--17" value="22" style="text;html=1;whiteSpace=wrap;strokeColor=none;fillColor=none;align=center;verticalAlign=middle;rounded=0;fontSize=8;" vertex="1" parent="1">
          <mxGeometry x="119" y="257" width="60" height="30" as="geometry" />
        </mxCell>
        <mxCell id="iSreJ-TO8Ud4rmnBnXO--18" value="&lt;font style=&quot;font-size: 12px;&quot;&gt;11&lt;/font&gt;" style="text;html=1;whiteSpace=wrap;strokeColor=none;fillColor=none;align=center;verticalAlign=middle;rounded=0;fontSize=8;" vertex="1" parent="1">
          <mxGeometry x="220" y="337" width="60" height="30" as="geometry" />
        </mxCell>
        <mxCell id="iSreJ-TO8Ud4rmnBnXO--19" value="&lt;font style=&quot;font-size: 12px;&quot;&gt;11&lt;/font&gt;" style="text;html=1;whiteSpace=wrap;strokeColor=none;fillColor=none;align=center;verticalAlign=middle;rounded=0;fontSize=8;" vertex="1" parent="1">
          <mxGeometry x="307" y="356" width="60" height="30" as="geometry" />
        </mxCell>
        <mxCell id="iSreJ-TO8Ud4rmnBnXO--20" value="" style="endArrow=none;html=1;rounded=0;" edge="1" parent="1">
          <mxGeometry width="50" height="50" relative="1" as="geometry">
            <mxPoint x="319.45" y="300" as="sourcePoint" />
            <mxPoint x="319.45" y="260.005" as="targetPoint" />
          </mxGeometry>
        </mxCell>
        <mxCell id="iSreJ-TO8Ud4rmnBnXO--21" value="" style="endArrow=none;html=1;rounded=0;" edge="1" parent="1">
          <mxGeometry width="50" height="50" relative="1" as="geometry">
            <mxPoint x="253.45" y="300" as="sourcePoint" />
            <mxPoint x="365" y="300" as="targetPoint" />
          </mxGeometry>
        </mxCell>
        <mxCell id="iSreJ-TO8Ud4rmnBnXO--22" value="" style="endArrow=none;html=1;rounded=0;" edge="1" parent="1">
          <mxGeometry width="50" height="50" relative="1" as="geometry">
            <mxPoint x="275" y="340" as="sourcePoint" />
            <mxPoint x="365" y="340" as="targetPoint" />
          </mxGeometry>
        </mxCell>
        <mxCell id="iSreJ-TO8Ud4rmnBnXO--23" value="" style="endArrow=none;html=1;rounded=0;" edge="1" parent="1">
          <mxGeometry width="50" height="50" relative="1" as="geometry">
            <mxPoint x="364.45000000000005" y="340" as="sourcePoint" />
            <mxPoint x="364.45000000000005" y="320" as="targetPoint" />
          </mxGeometry>
        </mxCell>
        <mxCell id="iSreJ-TO8Ud4rmnBnXO--24" value="" style="endArrow=none;html=1;rounded=0;" edge="1" parent="1">
          <mxGeometry width="50" height="50" relative="1" as="geometry">
            <mxPoint x="274.45" y="340" as="sourcePoint" />
            <mxPoint x="274.45" y="300" as="targetPoint" />
          </mxGeometry>
        </mxCell>
        <mxCell id="iSreJ-TO8Ud4rmnBnXO--25" value="" style="endArrow=none;html=1;rounded=0;dashed=1;" edge="1" parent="1">
          <mxGeometry width="50" height="50" relative="1" as="geometry">
            <mxPoint x="366.54999999999995" y="300" as="sourcePoint" />
            <mxPoint x="390" y="300" as="targetPoint" />
          </mxGeometry>
        </mxCell>
        <mxCell id="iSreJ-TO8Ud4rmnBnXO--26" value="" style="endArrow=none;html=1;rounded=0;" edge="1" parent="1">
          <mxGeometry width="50" height="50" relative="1" as="geometry">
            <mxPoint x="315" y="280" as="sourcePoint" />
            <mxPoint x="323.45" y="270" as="targetPoint" />
          </mxGeometry>
        </mxCell>
        <mxCell id="iSreJ-TO8Ud4rmnBnXO--27" value="" style="endArrow=none;html=1;rounded=0;" edge="1" parent="1">
          <mxGeometry width="50" height="50" relative="1" as="geometry">
            <mxPoint x="270.45" y="330" as="sourcePoint" />
            <mxPoint x="278.45" y="320" as="targetPoint" />
          </mxGeometry>
        </mxCell>
        <mxCell id="iSreJ-TO8Ud4rmnBnXO--28" value="" style="endArrow=none;html=1;rounded=0;" edge="1" parent="1">
          <mxGeometry width="50" height="50" relative="1" as="geometry">
            <mxPoint x="342" y="345" as="sourcePoint" />
            <mxPoint x="350" y="335" as="targetPoint" />
          </mxGeometry>
        </mxCell>
        <mxCell id="iSreJ-TO8Ud4rmnBnXO--29" value="" style="endArrow=none;html=1;rounded=0;dashed=1;" edge="1" parent="1">
          <mxGeometry width="50" height="50" relative="1" as="geometry">
            <mxPoint x="233.45" y="300" as="sourcePoint" />
            <mxPoint x="256.9" y="300" as="targetPoint" />
          </mxGeometry>
        </mxCell>
        <mxCell id="iSreJ-TO8Ud4rmnBnXO--30" value="" style="endArrow=none;html=1;rounded=0;" edge="1" parent="1">
          <mxGeometry width="50" height="50" relative="1" as="geometry">
            <mxPoint x="341.45000000000005" y="305" as="sourcePoint" />
            <mxPoint x="350.45000000000005" y="295" as="targetPoint" />
          </mxGeometry>
        </mxCell>
        <mxCell id="iSreJ-TO8Ud4rmnBnXO--31" value="(21)" style="text;html=1;whiteSpace=wrap;strokeColor=none;fillColor=none;align=center;verticalAlign=middle;rounded=0;fontSize=8;" vertex="1" parent="1">
          <mxGeometry x="230" y="280" width="60" height="30" as="geometry" />
        </mxCell>
        <mxCell id="iSreJ-TO8Ud4rmnBnXO--32" value="12" style="text;html=1;whiteSpace=wrap;strokeColor=none;fillColor=none;align=center;verticalAlign=middle;rounded=0;fontSize=8;" vertex="1" parent="1">
          <mxGeometry x="311.45" y="279" width="60" height="30" as="geometry" />
        </mxCell>
        <mxCell id="iSreJ-TO8Ud4rmnBnXO--33" value="0" style="text;html=1;whiteSpace=wrap;strokeColor=none;fillColor=none;align=center;verticalAlign=middle;rounded=0;fontSize=8;" vertex="1" parent="1">
          <mxGeometry x="318.45" y="291" width="60" height="30" as="geometry" />
        </mxCell>
        <mxCell id="iSreJ-TO8Ud4rmnBnXO--34" value="20" style="text;html=1;whiteSpace=wrap;strokeColor=none;fillColor=none;align=center;verticalAlign=middle;rounded=0;fontSize=8;" vertex="1" parent="1">
          <mxGeometry x="237.45" y="307" width="60" height="30" as="geometry" />
        </mxCell>
        <mxCell id="iSreJ-TO8Ud4rmnBnXO--35" value="13" style="text;html=1;whiteSpace=wrap;strokeColor=none;fillColor=none;align=center;verticalAlign=middle;rounded=0;fontSize=8;" vertex="1" parent="1">
          <mxGeometry x="250.45" y="314" width="60" height="30" as="geometry" />
        </mxCell>
        <mxCell id="iSreJ-TO8Ud4rmnBnXO--36" value="3" style="text;html=1;whiteSpace=wrap;strokeColor=none;fillColor=none;align=center;verticalAlign=middle;rounded=0;fontSize=8;" vertex="1" parent="1">
          <mxGeometry x="313.45" y="320" width="60" height="30" as="geometry" />
        </mxCell>
        <mxCell id="iSreJ-TO8Ud4rmnBnXO--37" value="&quot;000&quot;" style="text;html=1;whiteSpace=wrap;strokeColor=none;fillColor=none;align=center;verticalAlign=middle;rounded=0;fontSize=8;" vertex="1" parent="1">
          <mxGeometry x="333.45000000000005" y="300" width="60" height="30" as="geometry" />
        </mxCell>
        <mxCell id="iSreJ-TO8Ud4rmnBnXO--38" value="22" style="text;html=1;whiteSpace=wrap;strokeColor=none;fillColor=none;align=center;verticalAlign=middle;rounded=0;fontSize=8;" vertex="1" parent="1">
          <mxGeometry x="282.45" y="257" width="60" height="30" as="geometry" />
        </mxCell>
        <mxCell id="iSreJ-TO8Ud4rmnBnXO--39" value="&lt;font style=&quot;font-size: 12px;&quot;&gt;11&lt;/font&gt;" style="text;html=1;whiteSpace=wrap;strokeColor=none;fillColor=none;align=center;verticalAlign=middle;rounded=0;fontSize=8;" vertex="1" parent="1">
          <mxGeometry x="278" y="446" width="60" height="30" as="geometry" />
        </mxCell>
        <mxCell id="iSreJ-TO8Ud4rmnBnXO--40" value="11" style="text;html=1;whiteSpace=wrap;strokeColor=none;fillColor=none;align=center;verticalAlign=middle;rounded=0;" vertex="1" parent="1">
          <mxGeometry x="249" y="222" width="60" height="30" as="geometry" />
        </mxCell>
        <mxCell id="iSreJ-TO8Ud4rmnBnXO--41" value="&lt;font style=&quot;font-size: 9px;&quot;&gt;REG_b1&lt;/font&gt;" style="rounded=0;whiteSpace=wrap;html=1;rotation=90;container=0;" vertex="1" parent="1">
          <mxGeometry x="214.3333333333333" y="207.5" width="53.33333333333334" height="45" as="geometry" />
        </mxCell>
        <mxCell id="iSreJ-TO8Ud4rmnBnXO--42" value="" style="triangle;whiteSpace=wrap;html=1;container=0;" vertex="1" parent="1">
          <mxGeometry x="218.99999999999997" y="242.5" width="13.333333333333336" height="10" as="geometry" />
        </mxCell>
        <mxCell id="iSreJ-TO8Ud4rmnBnXO--44" value="" style="endArrow=none;html=1;rounded=0;" edge="1" parent="1">
          <mxGeometry width="50" height="50" relative="1" as="geometry">
            <mxPoint x="202.45" y="229.84" as="sourcePoint" />
            <mxPoint x="219" y="229.84" as="targetPoint" />
          </mxGeometry>
        </mxCell>
        <mxCell id="iSreJ-TO8Ud4rmnBnXO--46" value="" style="endArrow=none;html=1;rounded=0;" edge="1" parent="1">
          <mxGeometry width="50" height="50" relative="1" as="geometry">
            <mxPoint x="203.88" y="234.5" as="sourcePoint" />
            <mxPoint x="211.88" y="224.5" as="targetPoint" />
          </mxGeometry>
        </mxCell>
        <mxCell id="iSreJ-TO8Ud4rmnBnXO--48" value="b1" style="text;html=1;whiteSpace=wrap;strokeColor=none;fillColor=none;align=center;verticalAlign=middle;rounded=0;" vertex="1" parent="1">
          <mxGeometry x="179" y="227" width="60" height="30" as="geometry" />
        </mxCell>
        <mxCell id="iSreJ-TO8Ud4rmnBnXO--49" value="&lt;font style=&quot;font-size: 19px;&quot;&gt;+&lt;/font&gt;" style="text;html=1;whiteSpace=wrap;strokeColor=none;fillColor=none;align=center;verticalAlign=middle;rounded=0;" vertex="1" parent="1">
          <mxGeometry x="286.55" y="410" width="60" height="30" as="geometry" />
        </mxCell>
        <mxCell id="iSreJ-TO8Ud4rmnBnXO--50" value="" style="rounded=0;whiteSpace=wrap;html=1;dashed=1;fillColor=none;strokeColor=light-dark(#0000FF,#EDEDED);strokeWidth=2;" vertex="1" parent="1">
          <mxGeometry x="60" y="264" width="170" height="86" as="geometry" />
        </mxCell>
        <mxCell id="iSreJ-TO8Ud4rmnBnXO--51" value="&lt;font style=&quot;color: light-dark(rgb(0, 0, 255), rgb(237, 237, 237));&quot;&gt;appx&lt;/font&gt;" style="text;html=1;whiteSpace=wrap;strokeColor=none;fillColor=none;align=center;verticalAlign=middle;rounded=0;" vertex="1" parent="1">
          <mxGeometry x="46" y="326" width="60" height="30" as="geometry" />
        </mxCell>
      </root>
    </mxGraphModel>
  </diagram>
</mxfile>
